<svg width="100" height="12" viewBox="0 0 100 12" fill="none" xmlns="http://www.w3.org/2000/svg">
<g clip-path="url(#clip0_159_963)">
<path d="M11.848 0V3.22541H6.30478C6.16798 3.22541 6.03038 3.23407 5.89598 3.25218C5.20318 3.34274 4.55518 3.67111 4.07278 4.17744C3.90958 4.3491 3.76878 4.53967 3.65438 4.74441C3.41678 5.16963 3.28718 5.58304 3.27758 5.94055C3.26878 6.30514 3.37038 6.69572 3.57118 7.07054C3.76638 7.43356 4.02478 7.75011 4.34078 8.01155C4.93278 8.50292 5.72718 8.7738 6.57838 8.7738H11.848V11.9992H6.57838C4.95598 11.9992 3.41118 11.459 2.22878 10.4779C1.59038 9.9479 1.06718 9.30927 0.675179 8.57852C0.211179 7.71625 -0.0216208 6.77682 0.00157919 5.86023C0.0239792 4.97592 0.286379 4.07822 0.782379 3.19076C1.02878 2.74979 1.33198 2.33874 1.68318 1.97021C2.67998 0.923683 4.02398 0.242536 5.46558 0.0543343C5.74238 0.0181114 6.02398 0 6.30478 0H11.848Z" fill="url(#paint0_linear_159_963)"/>
<path d="M15.1248 0.000110063V3.22552H20.668C20.8048 3.22552 20.9424 3.23418 21.0768 3.2515C21.7696 3.34206 22.4176 3.67043 22.9 4.17676C23.0632 4.34843 23.204 4.53899 23.3184 4.74373C23.556 5.16895 23.6856 5.58237 23.6952 5.93987C23.704 6.30446 23.6024 6.69504 23.4016 7.06987C23.2064 7.43288 22.948 7.74944 22.632 8.01087C22.04 8.50224 21.2456 8.77313 20.3944 8.77313H15.1248V11.9985H20.3944C22.0168 11.9985 23.5616 11.4583 24.744 10.4772C25.3824 9.94722 25.9056 9.30859 26.2976 8.57784C26.7608 7.71558 26.9944 6.77536 26.9712 5.85955C26.9488 4.97524 26.6864 4.07754 26.1904 3.19008C25.944 2.74911 25.6408 2.33806 25.2896 1.96953C24.292 0.922218 22.948 0.241858 21.5064 0.0528694C21.2296 0.0166466 20.9472 -0.00146484 20.6672 -0.00146484H15.124L15.1248 0.000110063Z" fill="url(#paint1_linear_159_963)"/>
<path d="M15.1247 3.22949H11.8479V8.77316H15.1247V3.22949Z" fill="#DFEAFF"/>
<path d="M29.7849 10.393V2.19482H33.1281C35.4481 2.19482 37.3641 3.50672 37.3641 6.29431C37.3641 9.08189 35.4481 10.393 33.1281 10.393H29.7849ZM30.1537 3.27285C30.5105 3.27285 30.9505 3.34293 30.9505 3.63586V9.31576H33.1873C34.6153 9.31576 36.1977 8.50784 36.1977 6.29431C36.1977 4.08077 34.6513 3.27285 33.1873 3.27285H30.1537Z" fill="#DFEAFF"/>
<path d="M38.0056 2.19482H39.1712V10.393H38.0056V2.19482Z" fill="#DFEAFF"/>
<path d="M43.8473 2.11259C45.7633 2.13621 47.3337 3.06147 47.7977 4.99388L46.6673 5.29862C46.3817 4.11587 45.3945 3.27251 43.8473 3.27251C42.0033 3.26069 40.9561 4.41983 40.9561 6.29396C40.9561 8.1681 42.0745 9.32723 43.8473 9.31542C45.4177 9.31542 46.3817 8.47206 46.6673 7.28931L47.7977 7.59405C47.3337 9.52646 45.7633 10.4517 43.8473 10.4746C41.5393 10.4982 39.7905 9.13982 39.7905 6.29396C39.7905 3.44811 41.5393 2.08975 43.8473 2.11259Z" fill="#DFEAFF"/>
<path d="M48.3201 6.29396C48.3201 3.44811 50.1881 2.08975 52.4721 2.11259C54.7561 2.13621 56.6241 3.45913 56.6241 6.29396C56.6241 9.1288 54.7561 10.4746 52.4721 10.4746C50.1881 10.4746 48.3201 9.12801 48.3201 6.29396ZM49.4865 6.29396C49.4865 8.25 50.9497 9.39732 52.4729 9.39732C54.0793 9.39732 55.4593 8.25 55.4593 6.29396C55.4593 4.33793 53.9961 3.21423 52.4729 3.19061C50.9617 3.1788 49.4865 4.32691 49.4865 6.29396Z" fill="#DFEAFF"/>
<path d="M58.4922 2.19482L61.3714 8.84723C61.4194 8.96456 61.4426 9.12835 61.4426 9.2567H61.4666C61.4666 9.12756 61.4906 8.96377 61.5378 8.84723L64.417 2.19482H65.6666V10.393H64.501V5.36905C64.501 4.90051 64.5842 4.28 64.6794 3.81147H64.6554C64.5602 4.26819 64.3698 4.86508 64.1794 5.29896L62.0378 10.393H60.8722L58.7306 5.29896C58.5402 4.86587 58.3498 4.26819 58.2546 3.81147H58.2306C58.3258 4.28 58.409 4.90051 58.409 5.36905V10.393H57.2434V2.19482H58.493H58.4922Z" fill="#DFEAFF"/>
<path d="M67.0969 10.393V2.19482H70.4401C72.7601 2.19482 74.6761 3.50672 74.6761 6.29431C74.6761 9.08189 72.7601 10.393 70.4401 10.393H67.0969ZM67.4657 3.27285C67.8225 3.27285 68.2625 3.34293 68.2625 3.63586V9.31576H70.4993C71.9273 9.31576 73.5097 8.50784 73.5097 6.29431C73.5097 4.08077 71.9633 3.27285 70.4993 3.27285H67.4657Z" fill="#DFEAFF"/>
<path d="M75.3176 10.393V2.19482H79.1248C81.0288 2.19482 82.1704 2.93267 82.1704 4.57215C82.1704 5.3218 81.8728 5.69663 81.552 5.97775C81.2424 6.31714 80.612 6.49353 80.148 6.57543V6.59905C80.3976 6.55259 80.7072 6.49353 81.0048 6.49353C81.2664 6.49353 81.5048 6.54078 81.6832 6.68094C82.0048 6.88017 82.2544 7.21956 82.2544 8.02749L82.2664 10.393H81.0888V8.09757C81.0888 7.65266 80.8744 7.44162 80.244 7.44162L76.496 7.45344V10.393H75.3184H75.3176ZM78.8992 6.43447C80.184 6.43447 81.1 5.73206 81.1 4.80681C81.1 3.58862 80.3144 3.19095 79.0296 3.19095H76.4952V6.43526H78.8984L78.8992 6.43447Z" fill="#DFEAFF"/>
<path d="M83.2505 2.19482H84.4161V10.393H83.2505V2.19482Z" fill="#DFEAFF"/>
<path d="M85.2 2.19482H86.4376L89.0912 9.42049C89.1272 9.52601 89.1384 9.6898 89.1384 9.80713H89.1624C89.1624 9.6898 89.1864 9.52601 89.2216 9.42049L91.8744 2.19482H93.124L90.1136 10.393H88.2096L85.1992 2.19482H85.2Z" fill="#DFEAFF"/>
<path d="M93.7417 2.19482H100V3.27206H94.9081V5.9305H99.8337V6.89041H94.9081V9.31498H100V10.3922H93.7417V2.19482Z" fill="#DFEAFF"/>
<path d="M39.1472 0.548828H38.0056V1.67252H39.1472V0.548828Z" fill="#DFEAFF"/>
<path d="M84.4041 0.548828H83.2625V1.67252H84.4041V0.548828Z" fill="#DFEAFF"/>
</g>
<defs>
<linearGradient id="paint0_linear_159_963" x1="11.848" y1="5.99961" x2="-2.04797e-05" y2="5.99961" gradientUnits="userSpaceOnUse">
<stop stop-color="#DFEAFF"/>
<stop offset="1" stop-color="#BAD2FF"/>
</linearGradient>
<linearGradient id="paint1_linear_159_963" x1="15.1248" y1="5.99972" x2="26.972" y2="5.99972" gradientUnits="userSpaceOnUse">
<stop stop-color="#DFEAFF"/>
<stop offset="1" stop-color="#BAD2FF"/>
</linearGradient>
<clipPath id="clip0_159_963">
<rect width="100" height="12" fill="white"/>
</clipPath>
</defs>
</svg>
