<svg width="149" height="26" viewBox="0 0 149 26" fill="none" xmlns="http://www.w3.org/2000/svg">
<g clip-path="url(#clip0_226_263)">
<path d="M61.1865 3.83333V4.28961C60.668 4.3051 60.2806 4.36228 60.0219 4.46116C59.7633 4.56004 59.5916 4.74351 59.5082 5.00917C59.4248 5.27603 59.383 5.69061 59.383 6.25292V17.5777C59.383 18.1257 59.4248 18.5367 59.5082 18.8107C59.5916 19.0847 59.7633 19.267 60.0219 19.3587C60.2806 19.4504 60.6692 19.5112 61.1865 19.541V19.9973C60.8051 19.9675 60.3331 19.9484 59.7704 19.9401C59.2066 19.9329 58.6356 19.9282 58.0575 19.9282C57.4174 19.9282 56.8155 19.9317 56.2528 19.9401C55.689 19.9484 55.2396 19.9663 54.9047 19.9973V19.541C55.422 19.5112 55.8142 19.4492 56.0812 19.3587C56.347 19.267 56.527 19.0847 56.6176 18.8107C56.7082 18.5367 56.7547 18.1257 56.7547 17.5777V5.08899L56.8691 5.13426L51.2488 20.089H50.8829L44.9884 5.2939V16.9832C44.9884 17.6229 45.0337 18.1209 45.1255 18.4783C45.2173 18.8357 45.414 19.0907 45.7191 19.2431C46.0231 19.3956 46.488 19.4945 47.1126 19.5398V19.9961C46.8229 19.9663 46.4534 19.9472 46.0052 19.9389C45.5558 19.9317 45.1339 19.927 44.7369 19.927C44.34 19.927 43.9752 19.9305 43.595 19.9389C43.2136 19.9472 42.9012 19.9651 42.6581 19.9961V19.5398C43.1611 19.4945 43.5414 19.3992 43.8 19.2539C44.0587 19.1097 44.2339 18.8619 44.3257 18.5117C44.4175 18.1614 44.4628 17.6825 44.4628 17.0737V6.25292C44.4628 5.68942 44.4175 5.27484 44.3257 5.00917C44.2339 4.74351 44.0587 4.56004 43.8 4.46116C43.5414 4.36228 43.1599 4.3051 42.6581 4.28961V3.83333C42.9012 3.84882 43.2136 3.86431 43.595 3.8786C43.9752 3.89409 44.3567 3.90124 44.7369 3.90124C45.1792 3.90124 45.6238 3.89409 46.0732 3.8786C46.5225 3.86312 46.9076 3.84882 47.227 3.83333L52.2751 16.8021L51.8413 17.0988L56.7988 3.90243H58.0551C58.6333 3.90243 59.2054 3.89528 59.768 3.87979C60.3319 3.86431 60.8039 3.85001 61.1841 3.83452L61.1865 3.83333Z" fill="#0070FA"/>
<path d="M68.3599 7.89695C69.6997 7.89695 70.7511 8.30081 71.5127 9.10734C72.2744 9.91387 72.6547 11.1934 72.6547 12.9434H64.7732L64.7279 12.5098H70.2337C70.2492 11.764 70.1884 11.0754 70.0514 10.444C69.9143 9.8126 69.7009 9.30629 69.4112 8.92626C69.1216 8.54622 68.7413 8.35561 68.2693 8.35561C67.6137 8.35561 67.0475 8.70229 66.5671 9.39445C66.088 10.0878 65.7935 11.1945 65.6874 12.7171L65.7566 12.8314C65.7411 13.0447 65.7256 13.277 65.7113 13.5284C65.6958 13.7797 65.6886 14.0275 65.6886 14.2705C65.6886 15.3213 65.8484 16.2041 66.1678 16.9189C66.4873 17.6349 66.9069 18.171 67.4242 18.5284C67.9415 18.8858 68.4672 19.0645 69 19.0645C69.4112 19.0645 69.8106 19.0001 70.1992 18.8703C70.5877 18.7416 70.9561 18.52 71.3065 18.2079C71.657 17.8958 71.9693 17.4657 72.2434 16.9177L72.7 17.1C72.5176 17.617 72.2351 18.1269 71.8548 18.6296C71.4734 19.1324 70.9871 19.5398 70.3923 19.8507C69.7975 20.1617 69.1049 20.3189 68.3134 20.3189C67.2466 20.3189 66.318 20.0795 65.5265 19.5994C64.735 19.1204 64.1247 18.4319 63.6992 17.5336C63.2724 16.6353 63.0591 15.5703 63.0591 14.3373C63.0591 12.9827 63.2796 11.8259 63.7218 10.8669C64.1629 9.90791 64.7839 9.17405 65.5837 8.66416C66.3836 8.15428 67.3086 7.89933 68.3599 7.89933V7.89695Z" fill="#0070FA"/>
<path d="M79.7818 7.89695C80.4517 7.89695 81.0644 8.04229 81.621 8.33059C82.1765 8.62008 82.5687 9.10734 82.7975 9.79235L82.5234 10.0437C82.31 9.49571 81.9977 9.09662 81.5865 8.84525C81.1752 8.59388 80.7103 8.46879 80.193 8.46879C79.3252 8.46879 78.6172 8.92983 78.0689 9.84953C77.5206 10.7704 77.2535 12.1893 77.269 14.1073C77.269 15.3713 77.3751 16.4018 77.5885 17.2012C77.8019 18.0006 78.1177 18.5903 78.5361 18.9703C78.9545 19.3504 79.4611 19.541 80.0559 19.541C80.6507 19.541 81.1871 19.2896 81.6663 18.7881C82.1455 18.2853 82.4316 17.5634 82.5234 16.6187L82.7296 17.0976C82.577 18.1328 82.2123 18.9274 81.633 19.4838C81.0536 20.039 80.2776 20.3177 79.3026 20.3177C78.3275 20.3177 77.5551 20.0926 76.8471 19.6446C76.139 19.1955 75.5943 18.5105 75.214 17.5896C74.8326 16.6687 74.6431 15.5083 74.6431 14.1073C74.6431 12.7063 74.8755 11.5698 75.3404 10.6489C75.8053 9.72802 76.4251 9.03943 77.2023 8.58315C77.9795 8.12687 78.8389 7.89814 79.7842 7.89814L79.7818 7.89695ZM84.9217 2.09757V17.5086C84.9217 18.1936 85.0397 18.6999 85.2757 19.0263C85.5117 19.3539 85.942 19.5172 86.5666 19.5172V19.9961C86.0946 19.9508 85.6226 19.9282 85.1505 19.9282C84.632 19.9282 84.1493 19.9508 83.6999 19.9961C83.2505 20.0413 82.8357 20.1247 82.4542 20.2474V4.83762C82.4542 4.15261 82.3362 3.64629 82.1002 3.31987C81.8642 2.99226 81.4339 2.82904 80.8093 2.82904V2.35013C81.2968 2.3954 81.7688 2.41804 82.2254 2.41804C82.7284 2.41804 83.2076 2.39183 83.6641 2.33822C84.1207 2.28461 84.5402 2.20479 84.9205 2.09876L84.9217 2.09757Z" fill="#0070FA"/>
<path d="M91.6373 4.44925V8.23886H94.7902V8.69514H91.6373V17.6682C91.6373 18.2925 91.7518 18.7333 91.9806 18.993C92.2095 19.2515 92.5361 19.3813 92.9628 19.3813C93.3586 19.3813 93.7126 19.2217 94.0249 18.9024C94.3372 18.5832 94.6078 18.0423 94.8355 17.281L95.2693 17.4407C95.087 18.2472 94.7627 18.9286 94.2991 19.4838C93.8342 20.039 93.1524 20.3177 92.2548 20.3177C91.7375 20.3177 91.3024 20.2534 90.9531 20.1235C90.6027 19.9949 90.2975 19.8078 90.0388 19.5636C89.7039 19.2134 89.475 18.7952 89.3534 18.308C89.2307 17.8207 89.1711 17.1738 89.1711 16.3673V8.69633H87.0696V8.24005H89.1711V4.90672C89.6431 4.89123 90.0853 4.84953 90.4966 4.78163C90.9078 4.71253 91.2881 4.60293 91.6385 4.45044L91.6373 4.44925Z" fill="#0070FA"/>
<path d="M98.9252 20.1581C98.2851 20.1581 97.7368 20.0366 97.2802 19.7923C96.8237 19.5493 96.4804 19.2146 96.2527 18.7881C96.0239 18.3616 95.9094 17.8743 95.9094 17.3263C95.9094 16.6568 96.062 16.1123 96.366 15.6942C96.6699 15.276 97.0621 14.9377 97.5425 14.678C98.0216 14.4195 98.5318 14.2026 99.073 14.0275C99.613 13.8524 100.124 13.6844 100.604 13.5248C101.083 13.3651 101.48 13.1793 101.792 12.9649C102.104 12.7516 102.26 12.4705 102.26 12.1202V10.5679C102.26 10.0199 102.172 9.58268 101.998 9.25506C101.823 8.92745 101.587 8.69514 101.29 8.55814C100.993 8.42113 100.639 8.35323 100.228 8.35323C99.8776 8.35323 99.5045 8.40326 99.1088 8.50214C98.713 8.60102 98.4007 8.79521 98.1718 9.0847C98.5068 9.17643 98.7845 9.35513 99.0062 9.6208C99.2268 9.88766 99.3376 10.2188 99.3376 10.6144C99.3376 11.0409 99.197 11.3756 98.9145 11.6187C98.632 11.8629 98.2779 11.9844 97.8524 11.9844C97.3804 11.9844 97.0299 11.8355 96.801 11.5388C96.5722 11.2422 96.4577 10.8955 96.4577 10.5C96.4577 10.1045 96.5603 9.75423 96.7665 9.49571C96.9715 9.23719 97.2421 8.99297 97.577 8.76543C97.943 8.5224 98.4114 8.3163 98.9824 8.14951C99.5534 7.98272 100.189 7.89814 100.89 7.89814C101.544 7.89814 102.111 7.97081 102.592 8.11496C103.071 8.2603 103.471 8.49142 103.791 8.81189C104.171 9.16214 104.423 9.59936 104.544 10.1247C104.666 10.6501 104.727 11.2851 104.727 12.0309V18.333C104.727 18.713 104.776 18.9834 104.876 19.1431C104.975 19.3027 105.138 19.3825 105.367 19.3825C105.519 19.3825 105.667 19.3444 105.813 19.2682C105.957 19.1919 106.128 19.0776 106.326 18.9263L106.555 19.3146C106.236 19.5731 105.912 19.7792 105.585 19.9305C105.257 20.083 104.842 20.1593 104.339 20.1593C103.836 20.1593 103.456 20.083 103.151 19.9305C102.846 19.7781 102.622 19.5577 102.477 19.2682C102.332 18.9787 102.26 18.6213 102.26 18.1948C101.865 18.8345 101.393 19.3218 100.844 19.6565C100.296 19.9913 99.6559 20.1593 98.9252 20.1593V20.1581ZM100.022 19.0621C100.449 19.0621 100.848 18.9406 101.221 18.6963C101.594 18.4533 101.941 18.0876 102.26 17.6003V13.0566C102.092 13.3008 101.849 13.5093 101.53 13.6844C101.21 13.8595 100.867 14.0382 100.502 14.2205C100.137 14.4028 99.7906 14.6125 99.4628 14.8483C99.135 15.0842 98.8644 15.3844 98.6522 15.7502C98.4388 16.1159 98.3328 16.5805 98.3328 17.1428C98.3328 17.7361 98.4853 18.2043 98.7893 18.5474C99.0933 18.8905 99.5045 19.0609 100.023 19.0609L100.022 19.0621Z" fill="#0070FA"/>
<path d="M111.239 4.44925V8.23886H114.391V8.69514H111.239V17.6682C111.239 18.2925 111.353 18.7333 111.581 18.993C111.81 19.2515 112.136 19.3813 112.563 19.3813C112.959 19.3813 113.313 19.2217 113.625 18.9024C113.937 18.5832 114.208 18.0423 114.436 17.281L114.869 17.4407C114.687 18.2472 114.363 18.9286 113.898 19.4838C113.433 20.039 112.751 20.3177 111.854 20.3177C111.335 20.3177 110.901 20.2534 110.552 20.1235C110.202 19.9949 109.896 19.8078 109.638 19.5636C109.303 19.2134 109.074 18.7952 108.952 18.308C108.831 17.8207 108.77 17.1738 108.77 16.3673V8.69633H106.668V8.24005H108.77V4.90672C109.242 4.89123 109.684 4.84953 110.095 4.78163C110.507 4.71253 110.887 4.60293 111.237 4.45044L111.239 4.44925Z" fill="#0070FA"/>
<path d="M125.95 8.21741V8.67369C125.661 8.71896 125.39 8.86788 125.14 9.11925C124.888 9.37062 124.656 9.80069 124.442 10.4095L120.833 20.0902H120.08L115.922 9.97581C115.678 9.38253 115.438 9.02037 115.202 8.89171C114.966 8.76304 114.765 8.69752 114.596 8.69752V8.21861C114.962 8.24958 115.339 8.27579 115.728 8.29843C116.116 8.32106 116.547 8.33297 117.019 8.33297C117.491 8.33297 117.989 8.32106 118.515 8.29843C119.04 8.27579 119.531 8.24958 119.988 8.21861V8.69752C119.622 8.69752 119.299 8.72016 119.016 8.76662C118.734 8.81189 118.551 8.94532 118.468 9.16571C118.385 9.38611 118.433 9.76376 118.617 10.2963L121.427 17.374L121.244 17.5562L123.597 11.3232C123.826 10.7144 123.917 10.2236 123.871 9.85072C123.826 9.47784 123.666 9.19669 123.392 9.00607C123.118 8.81546 122.722 8.70586 122.204 8.67488V8.21861C122.462 8.23409 122.702 8.24482 122.924 8.25316C123.144 8.26149 123.358 8.26864 123.564 8.27579C123.769 8.28413 123.987 8.2877 124.215 8.2877C124.55 8.2877 124.866 8.28056 125.162 8.26507C125.459 8.24958 125.723 8.23529 125.95 8.2198V8.21741Z" fill="#0070FA"/>
<path d="M129.834 20.1581C129.194 20.1581 128.647 20.0366 128.189 19.7923C127.732 19.5493 127.389 19.2146 127.161 18.7881C126.933 18.3616 126.819 17.8743 126.819 17.3263C126.819 16.6568 126.972 16.1123 127.276 15.6942C127.58 15.276 127.973 14.9377 128.452 14.678C128.932 14.4195 129.442 14.2026 129.983 14.0275C130.523 13.8524 131.034 13.6844 131.513 13.5248C131.994 13.3651 132.39 13.1793 132.702 12.9649C133.014 12.7516 133.17 12.4705 133.17 12.1202V10.5679C133.17 10.0199 133.082 9.58268 132.908 9.25506C132.733 8.92745 132.497 8.69514 132.2 8.55814C131.903 8.42113 131.549 8.35323 131.138 8.35323C130.788 8.35323 130.414 8.40326 130.019 8.50214C129.623 8.60102 129.311 8.79521 129.082 9.0847C129.417 9.17643 129.694 9.35513 129.916 9.6208C130.137 9.88766 130.248 10.2188 130.248 10.6144C130.248 11.0409 130.107 11.3756 129.824 11.6187C129.542 11.8629 129.188 11.9844 128.762 11.9844C128.29 11.9844 127.94 11.8355 127.711 11.5388C127.482 11.2422 127.369 10.8955 127.369 10.5C127.369 10.1045 127.471 9.75423 127.678 9.49571C127.883 9.23719 128.153 8.99297 128.488 8.76543C128.854 8.5224 129.323 8.3163 129.893 8.14951C130.464 7.98272 131.1 7.89814 131.801 7.89814C132.455 7.89814 133.022 7.97081 133.503 8.11496C133.983 8.2603 134.383 8.49142 134.702 8.81189C135.082 9.16214 135.334 9.59936 135.455 10.1247C135.577 10.6501 135.638 11.2851 135.638 12.0309V18.333C135.638 18.713 135.687 18.9834 135.787 19.1431C135.886 19.3027 136.049 19.3825 136.278 19.3825C136.43 19.3825 136.578 19.3444 136.724 19.2682C136.868 19.1919 137.04 19.0776 137.237 18.9263L137.466 19.3146C137.147 19.5731 136.823 19.7792 136.495 19.9305C136.167 20.083 135.752 20.1593 135.25 20.1593C134.749 20.1593 134.367 20.083 134.062 19.9305C133.757 19.7781 133.533 19.5577 133.388 19.2682C133.243 18.9787 133.171 18.6213 133.171 18.1948C132.776 18.8345 132.304 19.3218 131.755 19.6565C131.207 19.9913 130.567 20.1593 129.836 20.1593L129.834 20.1581ZM130.931 19.0621C131.357 19.0621 131.757 18.9406 132.13 18.6963C132.503 18.4533 132.85 18.0876 133.169 17.6003V13.0566C133.001 13.3008 132.758 13.5093 132.438 13.6844C132.119 13.8595 131.776 14.0382 131.411 14.2205C131.046 14.4028 130.699 14.6125 130.371 14.8483C130.044 15.0842 129.773 15.3844 129.561 15.7502C129.348 16.1159 129.241 16.5805 129.241 17.1428C129.241 17.7361 129.394 18.2043 129.698 18.5474C130.002 18.8905 130.413 19.0609 130.932 19.0609L130.931 19.0621Z" fill="#0070FA"/>
<path d="M141.37 20.1581C140.73 20.1581 140.183 20.0366 139.725 19.7923C139.269 19.5493 138.925 19.2146 138.698 18.7881C138.469 18.3616 138.355 17.8743 138.355 17.3263C138.355 16.6568 138.508 16.1123 138.812 15.6942C139.116 15.276 139.509 14.9377 139.989 14.678C140.468 14.4195 140.978 14.2026 141.519 14.0275C142.059 13.8524 142.57 13.6844 143.05 13.5248C143.53 13.3651 143.926 13.1793 144.238 12.9649C144.55 12.7516 144.706 12.4705 144.706 12.1202V10.5679C144.706 10.0199 144.618 9.58268 144.444 9.25506C144.269 8.92745 144.033 8.69514 143.736 8.55814C143.439 8.42113 143.085 8.35323 142.674 8.35323C142.324 8.35323 141.951 8.40326 141.555 8.50214C141.159 8.60102 140.847 8.79521 140.618 9.0847C140.953 9.17643 141.231 9.35513 141.452 9.6208C141.673 9.88766 141.784 10.2188 141.784 10.6144C141.784 11.0409 141.643 11.3756 141.361 11.6187C141.078 11.8629 140.724 11.9844 140.298 11.9844C139.826 11.9844 139.476 11.8355 139.247 11.5388C139.018 11.2422 138.905 10.8955 138.905 10.5C138.905 10.1045 139.008 9.75423 139.214 9.49571C139.419 9.23719 139.689 8.99297 140.024 8.76543C140.39 8.5224 140.859 8.3163 141.43 8.14951C142.001 7.98272 142.636 7.89814 143.337 7.89814C143.991 7.89814 144.559 7.97081 145.039 8.11496C145.519 8.2603 145.919 8.49142 146.238 8.81189C146.618 9.16214 146.87 9.59936 146.992 10.1247C147.113 10.6501 147.174 11.2851 147.174 12.0309V18.333C147.174 18.713 147.223 18.9834 147.323 19.1431C147.422 19.3027 147.585 19.3825 147.814 19.3825C147.967 19.3825 148.114 19.3444 148.26 19.2682C148.404 19.1919 148.576 19.0776 148.774 18.9263L149.002 19.3146C148.683 19.5731 148.359 19.7792 148.031 19.9305C147.703 20.083 147.288 20.1593 146.786 20.1593C146.285 20.1593 145.903 20.083 145.598 19.9305C145.293 19.7781 145.069 19.5577 144.925 19.2682C144.779 18.9787 144.708 18.6213 144.708 18.1948C144.312 18.8345 143.84 19.3218 143.292 19.6565C142.743 19.9913 142.103 20.1593 141.372 20.1593L141.37 20.1581ZM142.467 19.0621C142.893 19.0621 143.293 18.9406 143.666 18.6963C144.039 18.4533 144.386 18.0876 144.705 17.6003V13.0566C144.537 13.3008 144.294 13.5093 143.975 13.6844C143.655 13.8595 143.312 14.0382 142.947 14.2205C142.582 14.4028 142.235 14.6125 141.908 14.8483C141.58 15.0842 141.309 15.3844 141.097 15.7502C140.884 16.1159 140.778 16.5805 140.778 17.1428C140.778 17.7361 140.93 18.2043 141.234 18.5474C141.538 18.8905 141.949 19.0609 142.468 19.0609L142.467 19.0621Z" fill="#0070FA"/>
<path d="M18.6476 7.83857C20.6687 7.83857 22.307 6.20111 22.307 4.1812C22.307 2.16129 20.6687 0.523827 18.6476 0.523827C16.6265 0.523827 14.9882 2.16129 14.9882 4.1812C14.9882 6.20111 16.6265 7.83857 18.6476 7.83857Z" fill="#0070FA"/>
<path d="M5.94212 17.6075H0L5.94212 11.6675L11.8842 17.6075H5.94212Z" fill="#0070FA"/>
<path d="M18.6536 23.2496L12.8569 17.4562L18.6477 11.6675L24.4515 17.4014L18.6536 23.2496Z" fill="#0070FA"/>
<path d="M12.3253 16.8986L6.52625 11.1028L10.5481 7.08327C11.5303 6.10162 13.1216 6.10162 14.1026 7.08327L18.1244 11.1028L12.3253 16.8986Z" fill="#0070FA"/>
<path d="M24.9807 16.8986L19.2174 11.1386L23.2452 7.11306C24.2238 6.13498 25.8104 6.13498 26.789 7.11306L30.781 11.1028L24.9819 16.8986H24.9807Z" fill="#0070FA"/>
<path d="M31.352 17.6075H25.4099L31.352 11.6675L37.2942 17.6075H31.352Z" fill="#0070FA"/>
</g>
<defs>
<clipPath id="clip0_226_263">
<rect width="149" height="25" fill="white" transform="translate(0 0.5)"/>
</clipPath>
</defs>
</svg>
