<svg width="358" height="219" viewBox="0 0 358 219" fill="none" xmlns="http://www.w3.org/2000/svg">
<path d="M178.967 70.2216C198.364 70.2216 214.088 54.5019 214.088 35.1108C214.088 15.7196 198.364 0 178.967 0C159.571 0 143.847 15.7196 143.847 35.1108C143.847 54.5019 159.571 70.2216 178.967 70.2216Z" fill="#0070FA"/>
<path d="M57.0284 164.003H0L57.0284 106.979L114.057 164.003H57.0284Z" fill="#0070FA"/>
<path d="M179.025 218.167L123.392 162.55L178.967 106.979L234.669 162.024L179.025 218.167Z" fill="#0070FA"/>
<path d="M118.29 157.198L62.634 101.558L101.233 62.9707C110.659 53.5468 125.932 53.5468 135.347 62.9707L173.945 101.558L118.29 157.198Z" fill="#0070FA"/>
<path d="M239.748 157.198L184.436 101.901L223.092 63.2566C232.484 53.867 247.71 53.867 257.103 63.2566L295.415 101.558L239.76 157.198H239.748Z" fill="#0070FA"/>
<path d="M300.895 164.003H243.866L300.895 106.979L357.923 164.003H300.895Z" fill="#0070FA"/>
</svg>
