<svg width="463" height="318" viewBox="0 0 463 318" fill="none" xmlns="http://www.w3.org/2000/svg">
<path d="M395.984 149.444C360.406 157.179 357.401 182.903 375.875 179.35C416.094 171.616 349.578 155.632 308.592 172.132C274.049 186.038 250.5 190.344 256 195.5" stroke="#141E5A" stroke-width="1.5" stroke-dasharray="5.16 5.16"/>
<path d="M62.8837 188.103C98.0656 156.751 84.5883 124.157 66.0156 139.884C25.5828 174.119 111.332 151.869 146.882 106.686C176.843 68.6065 181.119 67.8369 171.513 65.0967" stroke="#141E5A" stroke-width="1.5" stroke-dasharray="5.16 5.16"/>
<path d="M145 201.289C138.5 201.289 127.493 211.107 110.689 201.289C89.6849 189.017 103.128 176.744 110.689 176.022C118.251 175.3 135.475 192.265 110.689 205.26C90.8612 215.656 73.3014 209.591 67 205.26" stroke="#141E5A" stroke-width="1.5" stroke-dasharray="5.16 5.16"/>
<path d="M279.969 176.772C288.906 159.241 305.234 119.538 331.531 124.694" stroke="#141E5A" stroke-width="1.5" stroke-dasharray="5.16 5.16"/>
<path d="M233.5 148.5C272.849 128.628 327.685 89.9071 294.239 63.9999" stroke="#141E5A" stroke-width="1.5" stroke-dasharray="5.16 5.16"/>
<path d="M330.882 129C317.5 156.5 328 192 373.85 215.541" stroke="#141E5A" stroke-width="1.5" stroke-dasharray="5.16 5.16"/>
<path d="M271.719 75.1942C260.203 81.2098 241.194 106.338 257.281 158.725C273.369 211.113 331.359 218.71 358.344 215.96" stroke="#141E5A" stroke-width="1.5" stroke-dasharray="5.16 5.16"/>
<path d="M329.004 251.009C317.319 239.015 291.589 217.168 282.153 225.733C270.359 236.44 287.874 244.14 291.606 236.141C295.337 228.141 284.319 219.098 278.504 216.707C274.28 214.971 262.62 211.127 255.887 210.004" stroke="#141E5A" stroke-width="1.5" stroke-dasharray="5.16 5.16"/>
<path d="M172.719 113.866C139.203 102.522 145.735 51.6473 154.157 48.8973" stroke="#141E5A" stroke-width="1.5" stroke-dasharray="5.16 5.16"/>
<path d="M142.5 220.5C129.953 217.234 108.562 217.838 90 247.126" stroke="#141E5A" stroke-width="1.5" stroke-dasharray="5.16 5.16"/>
<path d="M158.5 170C160.548 131.508 151.92 81.9984 96 91.8964" stroke="#141E5A" stroke-width="1.5" stroke-dasharray="5.16 5.16"/>
<path d="M142.759 246.796C122.832 255.742 79.8765 260.289 67.4792 206.904" stroke="#141E5A" stroke-width="1.5" stroke-dasharray="5.16 5.16"/>
<g filter="url(#filter0_d_315_4057)">
<rect x="52.0625" y="68.491" width="49.5" height="49.5" rx="12.0732" fill="white"/>
<path d="M74.2349 84.5381C74.2959 83.8966 74.5939 83.3009 75.0706 82.8673C75.5473 82.4337 76.1686 82.1935 76.813 82.1935C77.4574 82.1935 78.0787 82.4337 78.5554 82.8673C79.0321 83.3009 79.3301 83.8966 79.3911 84.5381C79.4277 84.9525 79.5637 85.352 79.7874 85.7028C80.0112 86.0535 80.3161 86.3452 80.6765 86.5531C81.0368 86.761 81.442 86.879 81.8576 86.8972C82.2732 86.9154 82.6871 86.8331 83.0642 86.6575C83.6498 86.3916 84.3134 86.3531 84.9257 86.5495C85.5381 86.746 86.0555 87.1632 86.3772 87.72C86.6989 88.2769 86.8019 88.9335 86.6662 89.5621C86.5304 90.1907 86.1657 90.7463 85.6429 91.1208C85.3024 91.3597 85.0245 91.6771 84.8327 92.0461C84.6408 92.415 84.5406 92.8248 84.5406 93.2407C84.5406 93.6566 84.6408 94.0664 84.8327 94.4354C85.0245 94.8044 85.3024 95.1217 85.6429 95.3606C86.1657 95.7351 86.5304 96.2907 86.6662 96.9193C86.8019 97.5479 86.6989 98.2046 86.3772 98.7614C86.0555 99.3183 85.5381 99.7355 84.9257 99.9319C84.3134 100.128 83.6498 100.09 83.0642 99.824C82.6871 99.6483 82.2732 99.5661 81.8576 99.5842C81.442 99.6024 81.0368 99.7204 80.6765 99.9284C80.3161 100.136 80.0112 100.428 79.7874 100.779C79.5637 101.129 79.4277 101.529 79.3911 101.943C79.3301 102.585 79.0321 103.181 78.5554 103.614C78.0787 104.048 77.4574 104.288 76.813 104.288C76.1686 104.288 75.5473 104.048 75.0706 103.614C74.5939 103.181 74.2959 102.585 74.2349 101.943C74.1984 101.529 74.0624 101.129 73.8386 100.778C73.6148 100.427 73.3097 100.136 72.9492 99.9277C72.5887 99.7198 72.1834 99.6018 71.7676 99.5837C71.3518 99.5656 70.9378 99.6481 70.5607 99.824C69.9751 100.09 69.3116 100.128 68.6992 99.9319C68.0868 99.7355 67.5694 99.3183 67.2477 98.7614C66.926 98.2046 66.823 97.5479 66.9587 96.9193C67.0945 96.2907 67.4592 95.7351 67.982 95.3606C68.3225 95.1217 68.6004 94.8044 68.7922 94.4354C68.9841 94.0664 69.0843 93.6566 69.0843 93.2407C69.0843 92.8248 68.9841 92.415 68.7922 92.0461C68.6004 91.6771 68.3225 91.3597 67.982 91.1208C67.46 90.7461 67.0958 90.1907 66.9604 89.5626C66.825 88.9344 66.928 88.2783 67.2494 87.7218C67.5707 87.1653 68.0875 86.7482 68.6993 86.5515C69.3111 86.3548 69.9741 86.3926 70.5596 86.6575C70.9367 86.8331 71.3506 86.9154 71.7662 86.8972C72.1818 86.879 72.587 86.761 72.9473 86.5531C73.3077 86.3452 73.6126 86.0535 73.8364 85.7028C74.0601 85.352 74.1961 84.9525 74.2327 84.5381M80.1326 93.2413C80.1326 95.0749 78.6461 96.5614 76.8125 96.5614C74.9788 96.5614 73.4923 95.0749 73.4923 93.2413C73.4923 91.4076 74.9788 89.9211 76.8125 89.9211C78.6461 89.9211 80.1326 91.4076 80.1326 93.2413Z" stroke="url(#paint0_linear_315_4057)" stroke-width="2.21341" stroke-linecap="round" stroke-linejoin="round"/>
</g>
<g filter="url(#filter1_d_315_4057)">
<rect x="326.375" y="96.3347" width="49.5" height="49.5" rx="12.0732" fill="white"/>
<path d="M351.126 114.445V121.085L355.552 123.298M362.193 121.085C362.193 127.197 357.238 132.152 351.126 132.152C345.013 132.152 340.059 127.197 340.059 121.085C340.059 114.973 345.013 110.018 351.126 110.018C357.238 110.018 362.193 114.973 362.193 121.085Z" stroke="url(#paint1_linear_315_4057)" stroke-width="2.21342" stroke-linecap="round" stroke-linejoin="round"/>
</g>
<g filter="url(#filter2_d_315_4057)">
<rect x="147.969" y="18.9911" width="49.5" height="49.5" rx="12.0732" fill="white"/>
<path d="M174.932 32.674V37.1008C174.932 37.6878 175.166 38.2508 175.581 38.6659C175.996 39.081 176.559 39.3142 177.146 39.3142H181.573M170.505 40.4209H168.292M177.146 44.8477H168.292M177.146 49.2746H168.292M176.039 32.674H166.079C165.492 32.674 164.929 32.9071 164.514 33.3222C164.098 33.7373 163.865 34.3003 163.865 34.8874V52.5947C163.865 53.1817 164.098 53.7447 164.514 54.1598C164.929 54.5749 165.492 54.8081 166.079 54.8081H179.359C179.946 54.8081 180.509 54.5749 180.924 54.1598C181.339 53.7447 181.573 53.1817 181.573 52.5947V38.2075L176.039 32.674Z" stroke="url(#paint2_linear_315_4057)" stroke-width="2.21341" stroke-linecap="round" stroke-linejoin="round"/>
</g>
<g filter="url(#filter3_d_315_4057)">
<rect x="21.125" y="174.71" width="49.5" height="49.5" rx="12.0732" fill="white"/>
<path d="M45.8751 195.033V199.46M45.8751 203.887H45.8862M54.7288 200.567C54.7288 206.1 50.8553 208.867 46.2514 210.472C46.0103 210.553 45.7485 210.549 45.5099 210.461C40.895 208.867 37.0215 206.1 37.0215 200.567V192.82C37.0215 192.526 37.1381 192.245 37.3456 192.037C37.5532 191.83 37.8347 191.713 38.1282 191.713C40.3416 191.713 43.1084 190.385 45.034 188.703C45.2685 188.502 45.5668 188.392 45.8751 188.392C46.1835 188.392 46.4818 188.502 46.7162 188.703C48.653 190.396 51.4087 191.713 53.6221 191.713C53.9156 191.713 54.1971 191.83 54.4047 192.037C54.6122 192.245 54.7288 192.526 54.7288 192.82V200.567Z" stroke="url(#paint3_linear_315_4057)" stroke-width="2.21341" stroke-linecap="round" stroke-linejoin="round"/>
</g>
<g filter="url(#filter4_d_315_4057)">
<rect x="347" y="181" width="49.5" height="49.5" rx="12.0732" fill="white"/>
<path d="M381.711 201.323L379.21 198.822C377.208 196.887 374.535 195.8 371.751 195.79C370.644 195.79 369.57 195.967 368.574 196.31M381.711 201.323V195.79M381.711 201.323H376.177M367.324 210.177H361.79M361.79 210.177V215.71M361.79 210.177L364.291 212.678C366.293 214.613 368.966 215.7 371.751 215.71C374.506 215.71 376.996 214.604 378.789 212.789M361.79 205.75C361.79 202.994 362.897 200.504 364.712 198.711M381.711 205.75C381.711 206.857 381.534 207.93 381.191 208.926M382.818 216.817L360.684 194.683" stroke="url(#paint4_linear_315_4057)" stroke-width="2.21341" stroke-linecap="round" stroke-linejoin="round"/>
</g>
<g filter="url(#filter5_d_315_4057)">
<rect x="263.469" y="34.4598" width="49.5" height="49.5" rx="12.0732" fill="white"/>
<path d="M269.635 64.2098V53.6733H273.792C274.591 53.6733 275.272 53.8259 275.834 54.1311C276.397 54.433 276.825 54.8531 277.12 55.3916C277.419 55.9267 277.568 56.5441 277.568 57.2438C277.568 57.9435 277.417 58.5608 277.115 59.0959C276.813 59.631 276.376 60.0477 275.803 60.3461C275.234 60.6445 274.544 60.7937 273.735 60.7937H271.085V59.0084H273.375C273.804 59.0084 274.157 58.9347 274.435 58.7872C274.716 58.6363 274.925 58.4288 275.062 58.1647C275.203 57.8971 275.273 57.5902 275.273 57.2438C275.273 56.8939 275.203 56.5886 275.062 56.328C274.925 56.0639 274.716 55.8598 274.435 55.7157C274.153 55.5683 273.797 55.4945 273.365 55.4945H271.862V64.2098H269.635ZM279.614 64.2098H277.227L280.864 53.6733H283.735L287.367 64.2098H284.98L282.341 56.081H282.259L279.614 64.2098ZM279.465 60.0683H285.104V61.8072H279.465V60.0683ZM297.437 57.3621H295.184C295.143 57.0705 295.059 56.8116 294.932 56.5852C294.805 56.3554 294.642 56.1599 294.443 55.9987C294.244 55.8375 294.014 55.714 293.753 55.6283C293.496 55.5425 293.217 55.4997 292.915 55.4997C292.369 55.4997 291.894 55.6351 291.49 55.9061C291.085 56.1736 290.771 56.5646 290.548 57.0791C290.325 57.5902 290.214 58.211 290.214 58.9415C290.214 59.6927 290.325 60.3238 290.548 60.8348C290.775 61.3459 291.09 61.7318 291.495 61.9924C291.9 62.2531 292.368 62.3834 292.899 62.3834C293.198 62.3834 293.474 62.344 293.728 62.2651C293.985 62.1862 294.213 62.0713 294.412 61.9204C294.611 61.7661 294.776 61.5791 294.906 61.3596C295.04 61.1401 295.132 60.8897 295.184 60.6085L297.437 60.6188C297.379 61.1024 297.233 61.5688 297 62.0181C296.77 62.464 296.46 62.8636 296.069 63.2169C295.681 63.5667 295.218 63.8446 294.68 64.0503C294.144 64.2527 293.539 64.3539 292.863 64.3539C291.924 64.3539 291.083 64.1412 290.342 63.7159C289.605 63.2906 289.022 62.675 288.593 61.8689C288.168 61.0629 287.955 60.0871 287.955 58.9415C287.955 57.7925 288.171 56.815 288.603 56.009C289.036 55.203 289.622 54.589 290.363 54.1672C291.104 53.7418 291.937 53.5292 292.863 53.5292C293.474 53.5292 294.04 53.6149 294.561 53.7864C295.086 53.9579 295.551 54.2083 295.955 54.5376C296.36 54.8634 296.689 55.263 296.943 55.7363C297.2 56.2096 297.365 56.7516 297.437 57.3621ZM304.75 56.7035C304.709 56.2885 304.533 55.9661 304.221 55.7363C303.908 55.5065 303.485 55.3916 302.95 55.3916C302.586 55.3916 302.279 55.4431 302.029 55.546C301.778 55.6454 301.586 55.7843 301.453 55.9627C301.322 56.141 301.257 56.3434 301.257 56.5698C301.25 56.7584 301.29 56.9231 301.375 57.0637C301.465 57.2043 301.586 57.3261 301.741 57.429C301.895 57.5284 302.073 57.6159 302.276 57.6914C302.478 57.7634 302.694 57.8251 302.924 57.8766L303.871 58.1029C304.33 58.2058 304.752 58.343 305.136 58.5145C305.52 58.686 305.853 58.897 306.134 59.1473C306.416 59.3977 306.633 59.6927 306.788 60.0322C306.946 60.3718 307.026 60.7611 307.03 61.2001C307.026 61.8449 306.862 62.404 306.536 62.8773C306.213 63.3472 305.747 63.7125 305.136 63.9732C304.529 64.2304 303.797 64.359 302.94 64.359C302.089 64.359 301.348 64.2287 300.717 63.968C300.089 63.7074 299.599 63.3215 299.246 62.8104C298.896 62.296 298.712 61.6597 298.695 60.9017H300.851C300.875 61.255 300.976 61.55 301.154 61.7866C301.336 62.0199 301.578 62.1965 301.88 62.3165C302.185 62.4332 302.53 62.4915 302.914 62.4915C303.291 62.4915 303.619 62.4366 303.896 62.3268C304.178 62.2171 304.395 62.0644 304.55 61.8689C304.704 61.6734 304.781 61.4488 304.781 61.195C304.781 60.9583 304.711 60.7594 304.57 60.5982C304.433 60.437 304.231 60.2998 303.963 60.1866C303.699 60.0734 303.375 59.9705 302.991 59.8779L301.844 59.5898C300.955 59.3737 300.254 59.0359 299.739 58.5763C299.225 58.1167 298.969 57.4976 298.973 56.719C298.969 56.081 299.139 55.5237 299.482 55.0469C299.829 54.5702 300.304 54.198 300.907 53.9305C301.511 53.663 302.197 53.5292 302.965 53.5292C303.747 53.5292 304.43 53.663 305.013 53.9305C305.599 54.198 306.056 54.5702 306.381 55.0469C306.707 55.5237 306.875 56.0759 306.886 56.7035H304.75Z" fill="url(#paint5_linear_315_4057)"/>
</g>
<g filter="url(#filter6_d_315_4057)">
<rect x="305" y="241" width="49.5" height="49.5" rx="12.0732" fill="white"/>
<path d="M318.666 270.75V260.213H322.823C323.619 260.213 324.298 260.356 324.86 260.64C325.426 260.922 325.857 261.321 326.151 261.839C326.45 262.354 326.599 262.959 326.599 263.655C326.599 264.355 326.448 264.957 326.146 265.461C325.845 265.962 325.407 266.346 324.834 266.613C324.265 266.881 323.576 267.015 322.766 267.015H319.983V265.224H322.406C322.831 265.224 323.185 265.166 323.466 265.049C323.747 264.933 323.956 264.758 324.094 264.525C324.234 264.291 324.304 264.002 324.304 263.655C324.304 263.305 324.234 263.01 324.094 262.77C323.956 262.53 323.745 262.348 323.461 262.225C323.179 262.098 322.825 262.035 322.396 262.035H320.893V270.75H318.666ZM324.356 265.955L326.975 270.75H324.515L321.953 265.955H324.356ZM330.401 260.213V270.75H328.173V260.213H330.401ZM337.95 263.244C337.909 262.829 337.732 262.506 337.42 262.276C337.108 262.047 336.684 261.932 336.149 261.932C335.786 261.932 335.479 261.983 335.228 262.086C334.978 262.185 334.786 262.324 334.652 262.503C334.522 262.681 334.457 262.883 334.457 263.11C334.45 263.298 334.489 263.463 334.575 263.604C334.664 263.744 334.786 263.866 334.94 263.969C335.094 264.068 335.273 264.156 335.475 264.231C335.678 264.303 335.894 264.365 336.123 264.417L337.07 264.643C337.53 264.746 337.952 264.883 338.336 265.055C338.72 265.226 339.053 265.437 339.334 265.687C339.615 265.938 339.833 266.233 339.987 266.572C340.145 266.912 340.226 267.301 340.229 267.74C340.226 268.385 340.061 268.944 339.735 269.417C339.413 269.887 338.946 270.253 338.336 270.513C337.729 270.77 336.996 270.899 336.139 270.899C335.288 270.899 334.547 270.769 333.916 270.508C333.289 270.247 332.798 269.862 332.445 269.35C332.095 268.836 331.912 268.2 331.894 267.442H334.05C334.074 267.795 334.175 268.09 334.354 268.327C334.535 268.56 334.777 268.737 335.079 268.857C335.384 268.973 335.729 269.032 336.113 269.032C336.49 269.032 336.818 268.977 337.096 268.867C337.377 268.757 337.595 268.604 337.749 268.409C337.904 268.213 337.981 267.989 337.981 267.735C337.981 267.498 337.91 267.299 337.77 267.138C337.633 266.977 337.43 266.84 337.163 266.727C336.899 266.613 336.574 266.511 336.19 266.418L335.043 266.13C334.155 265.914 333.453 265.576 332.939 265.116C332.424 264.657 332.169 264.038 332.172 263.259C332.169 262.621 332.339 262.064 332.682 261.587C333.028 261.11 333.503 260.738 334.107 260.471C334.71 260.203 335.396 260.069 336.165 260.069C336.947 260.069 337.629 260.203 338.212 260.471C338.799 260.738 339.255 261.11 339.581 261.587C339.907 262.064 340.075 262.616 340.085 263.244H337.95Z" fill="url(#paint6_linear_315_4057)"/>
</g>
<g filter="url(#filter7_d_315_4057)">
<rect x="59" y="241" width="49.5" height="49.5" rx="12.0732" fill="white"/>
<path d="M72.1658 270.75V260.213H74.3935V264.561H78.9158V260.213H81.1383V270.75H78.9158V266.397H74.3935V270.75H72.1658ZM85.2027 260.213V270.75H82.975V260.213H85.2027ZM92.7515 263.244C92.7103 262.829 92.5337 262.506 92.2216 262.276C91.9094 262.047 91.4859 261.932 90.9508 261.932C90.5872 261.932 90.2803 261.983 90.0299 262.086C89.7795 262.185 89.5874 262.324 89.4537 262.503C89.3233 262.681 89.2581 262.883 89.2581 263.11C89.2513 263.298 89.2907 263.463 89.3765 263.604C89.4657 263.744 89.5874 263.866 89.7418 263.969C89.8961 264.068 90.0745 264.156 90.2768 264.231C90.4792 264.303 90.6953 264.365 90.9251 264.417L91.8717 264.643C92.3313 264.746 92.7532 264.883 93.1373 265.055C93.5215 265.226 93.8542 265.437 94.1354 265.687C94.4167 265.938 94.6345 266.233 94.7888 266.572C94.9466 266.912 95.0272 267.301 95.0306 267.74C95.0272 268.385 94.8626 268.944 94.5367 269.417C94.2143 269.887 93.7479 270.253 93.1373 270.513C92.5303 270.77 91.798 270.899 90.9405 270.899C90.0899 270.899 89.349 270.769 88.7179 270.508C88.0903 270.247 87.5998 269.862 87.2465 269.35C86.8967 268.836 86.7132 268.2 86.696 267.442H88.8517C88.8757 267.795 88.9769 268.09 89.1553 268.327C89.337 268.56 89.5788 268.737 89.8807 268.857C90.1859 268.973 90.5306 269.032 90.9148 269.032C91.2921 269.032 91.6196 268.977 91.8974 268.867C92.1787 268.757 92.3965 268.604 92.5508 268.409C92.7052 268.213 92.7823 267.989 92.7823 267.735C92.7823 267.498 92.712 267.299 92.5714 267.138C92.4342 266.977 92.2319 266.84 91.9643 266.727C91.7002 266.613 91.3761 266.511 90.992 266.418L89.8447 266.13C88.9563 265.914 88.2549 265.576 87.7404 265.116C87.2259 264.657 86.9704 264.038 86.9738 263.259C86.9704 262.621 87.1402 262.064 87.4832 261.587C87.8296 261.11 88.3046 260.738 88.9083 260.471C89.512 260.203 90.1979 260.069 90.9662 260.069C91.7482 260.069 92.4308 260.203 93.0139 260.471C93.6004 260.738 94.0565 261.11 94.3824 261.587C94.7082 262.064 94.8763 262.616 94.8866 263.244H92.7515Z" fill="url(#paint7_linear_315_4057)"/>
</g>
<g filter="url(#filter8_d_315_4057)">
<rect x="396.5" y="117.991" width="49.5" height="49.5" rx="12.0732" fill="white"/>
<path d="M431.211 152.701L426.408 147.898M428.997 141.634C428.997 146.524 425.033 150.488 420.144 150.488C415.254 150.488 411.29 146.524 411.29 141.634C411.29 136.745 415.254 132.781 420.144 132.781C425.033 132.781 428.997 136.745 428.997 141.634Z" stroke="url(#paint8_linear_315_4057)" stroke-width="2.21341" stroke-linecap="round" stroke-linejoin="round"/>
</g>
<g clip-path="url(#clip0_315_4057)">
<path d="M156.846 318.09C157.239 309.338 157.652 300.586 158.021 291.829C158.512 280.121 158.326 268.419 157.79 256.594C155.951 256.289 154.2 255.964 152.445 255.704C145.625 254.72 141.829 251.072 140.571 244.262C139.479 238.362 140.182 232.511 140.846 226.655C141.697 219.176 142.557 211.702 143.555 204.243C144.435 197.679 144.239 191.046 145.399 184.472C146.874 176.143 151.122 170.764 159.166 168.035C164.87 166.098 170.406 163.644 175.967 161.304C179.257 159.917 182.084 157.616 185.57 156.515C186.262 156.248 186.865 155.792 187.309 155.197C187.752 154.603 188.019 153.896 188.078 153.156C188.166 152.173 188.191 151.19 188.353 150.231C188.751 147.915 188.029 146.297 185.964 144.965C182.905 142.959 181.17 139.9 180.398 136.316C180.103 134.959 179.694 133.617 179.513 132.245C179.124 129.236 178.5 126.694 175.579 124.712C172.309 122.49 171.616 118.645 172.137 114.78C172.413 112.729 173.76 111.643 175.923 111.569C176.105 108.914 175.982 106.313 176.415 103.702C177.054 99.8569 178.534 96.5233 181.238 93.7304C185.113 89.7379 189.543 86.596 194.893 84.88C201.649 82.746 207.446 84.3883 212.249 89.5314C212.68 90.0065 213.23 90.3579 213.843 90.5492C218.661 92.1226 221.488 95.653 223.278 100.186C224.675 103.731 225.142 107.449 225.245 111.215C228.662 112.641 229.67 114.819 228.893 118.527C228.116 122.234 226.228 125.017 222.801 126.625C221.621 127.175 221.351 128.026 221.238 129.137C221.125 130.248 220.933 131.237 220.746 132.5C223.16 133.635 225.405 135.097 227.418 136.847C230.287 139.295 232.435 142.479 233.628 146.056C235.998 152.743 238.28 159.46 240.242 166.275C240.551 167.337 240.925 168.04 242.007 168.31C242.238 168.364 242.439 168.546 242.671 168.62C250.636 171.123 253.842 177.195 255.253 184.871C256.158 189.817 256.049 194.813 256.62 199.764C257.515 207.562 258.523 215.351 259.319 223.159C259.978 229.654 261.202 236.13 260.224 242.713C259.363 248.506 257.057 253.177 251.064 255.163C250.911 255.212 250.631 255.232 250.616 255.311C250.1 258.035 247.287 259.185 246.324 261.575C245.832 262.765 245.247 263.9 244.052 264.323C242.646 264.815 242.523 265.744 242.498 266.978C242.203 282.388 242.784 297.773 243.762 313.148C243.865 314.781 243.841 316.423 243.88 318.065H241.913C241.795 314.874 241.707 311.673 241.554 308.492C240.945 295.565 240.183 282.644 240.532 269.697C240.576 268.222 240.532 266.777 240.532 265.031C233.156 264.564 226.218 262.366 219.566 258.674C219.236 260.341 219.03 261.54 218.75 262.725C218.602 263.355 218.381 264.107 217.535 264.004C216.404 263.871 216.803 262.947 216.817 262.263C216.817 261.319 217.688 260.454 217.063 259.396C215.096 258.969 215.49 260.449 215.47 261.471C215.121 276.861 214.806 292.256 216.001 307.627C216.272 311.103 215.947 314.638 216.827 318.065H214.369C214.546 313.911 214.366 309.749 213.833 305.625C211.502 305.748 209.408 305.847 207.283 305.979C206.585 306.029 205.808 305.911 205.528 306.914C204.545 310.675 202.725 314.191 202.086 318.065H198.644C198.423 315.681 197.287 313.566 196.594 311.324C194.981 306.088 194.922 306.107 189.489 305.778C188.688 305.729 187.891 305.655 186.932 305.581C186.353 309.724 186.157 313.911 186.347 318.09H183.889C184.029 317.942 184.135 317.765 184.198 317.571C184.261 317.377 184.279 317.171 184.252 316.969C184.621 309.702 184.941 302.424 185.374 295.157C186.013 284.438 185.216 273.724 185.285 263.01C185.285 261.943 185.231 260.881 185.226 259.819C185.226 258.374 184.464 258.246 183.426 258.575C182.935 260.483 184.543 262.13 183.712 263.91C182.517 264.343 182.178 263.576 181.966 262.74C181.701 261.797 181.52 260.833 181.425 259.859C181.332 258.482 180.619 258.167 179.35 258.093C172.904 257.73 166.468 257.272 160.002 256.845C159.619 257.572 159.806 258.408 159.825 259.21C159.953 265.346 160.189 271.502 160.243 277.614C160.366 291.125 159.127 304.593 158.812 318.09H156.846ZM171.301 169.805C171.026 170.066 170.618 170.405 171.11 170.71C171.749 171.098 171.552 170.415 171.66 170.149C172.078 169.943 172.152 169.658 171.901 169.136L171.301 169.805ZM170.003 183.902C169.58 184.261 169.679 184.758 169.664 185.22C169.664 185.461 169.772 185.657 170.028 185.436C170.111 185.367 170.072 185.141 170.087 184.989C171.665 182.766 173.239 180.539 174.787 178.351C174.077 177.223 173.179 176.225 172.132 175.401C171.109 178.147 170.395 180.998 170.003 183.902ZM229.498 207.316C229.591 206.933 229.616 206.49 229.218 206.333C228.82 206.176 228.726 206.515 228.8 206.874C227.816 212.75 226.7 218.606 225.82 224.501C225.191 228.71 224.07 233.071 227.595 236.793C229.528 235.451 231.44 233.942 233.609 232.86C232.212 224.221 230.85 215.769 229.488 207.316H229.498ZM169.512 190.599V188.873C169.02 189.645 168.769 190.097 168.848 190.668C168.523 194.734 168.233 198.81 167.864 202.876C167.732 204.278 167.864 205.217 169.339 206.023C171.272 207.085 171.872 209.416 171.198 211.358C170.87 212.332 170.251 213.183 169.425 213.794C168.598 214.405 167.604 214.747 166.576 214.775C165.145 214.805 164.078 213.871 162.702 213.172C163.193 220.572 164 227.697 164.885 234.974L177.005 236.675C174.301 221.044 171.523 205.886 169.521 190.604L169.512 190.599ZM222.069 172.234C223.086 173.522 223.436 175.273 224.773 176.33C225.324 176.045 225.879 175.415 225.712 175.238C224.616 174.107 223.868 172.5 222.039 172.288C221.267 169.599 218.858 168.015 217.393 165.67C216.888 191.061 216.381 216.432 215.873 241.784C216.999 241.961 217.874 242.163 218.764 242.227C219.954 242.31 220.854 241.838 221.07 240.56C221.808 236.135 222.708 231.734 223.195 227.284C223.735 222.338 225.013 217.956 225.5 213C225.78 210.119 226.115 207.975 227 205C227.744 202.5 228.323 198.845 227.767 195.889C227.089 192.285 226.656 188.632 226.12 184.998C225.751 182.476 225.137 180.082 223.401 178.056C222.269 176.753 221.388 175.253 220.8 173.631C220.353 172.372 220.53 172.229 222.078 172.239L222.069 172.234ZM219.04 112.562C219.305 112.144 218.927 111.884 218.784 111.579C217.86 109.406 217.029 107.188 215.986 105.074C213.72 100.467 207.328 96.8134 202.273 97.5017C192.729 98.8047 185.359 103.668 180.171 111.761C179.522 112.779 178.967 113.865 179.144 115.203C179.803 120.144 180.26 125.12 181.071 130.037C181.691 133.789 181.887 137.87 184.557 140.854C191.407 148.53 201.801 151.726 211.65 144.439C211.158 142.423 215 138.5 220 140.5C225 142.5 212.5 136.5 212.5 136.5C212.5 136.5 210.958 135.804 210.5 135.5C209.259 134.571 208.526 133.879 208.076 132.288C208.023 132.101 208.028 131.899 208.117 131.727C209.385 129.258 214.891 130.973 218.592 131.586C218.972 131.157 219.192 130.61 219.217 130.037C219.758 125.656 220.2 121.26 220.869 116.899C221.164 114.952 220.638 113.585 219.04 112.562ZM171.759 165.488C165.686 167.789 159.52 169.623 153.915 172.79C151.885 173.908 150.308 175.699 149.455 177.854C147.877 181.822 146.731 185.933 146.545 190.186C145.93 203.929 143.594 217.49 142.291 231.154C141.854 235.712 141.578 240.294 142.641 244.833C143.84 249.951 147.002 252.886 152.14 253.732C160.794 255.158 169.536 255.61 178.269 256.132C189.051 256.781 199.844 257.331 210.622 258.034C212.417 258.152 213.572 257.656 214.497 256.176C216.852 252.434 216.591 246.75 213.931 243.215C213.346 242.438 212.667 242.345 211.832 242.276C203.601 241.592 195.35 241.12 187.158 239.994C177.447 238.657 167.727 237.383 158.006 236.09C157.273 235.992 156.324 236.007 156.472 234.989C156.634 233.887 157.573 234.06 158.439 234.182C159.791 234.374 161.153 234.492 162.77 234.674C162.662 233.224 162.603 232.019 162.48 230.824C161.61 222.465 160.474 214.082 160.818 205.625C160.853 204.789 160.587 203.53 161.836 203.462C163.37 203.378 162.584 204.74 162.756 205.487C162.803 205.813 162.828 206.142 162.829 206.471C165.583 205.089 165.608 205.089 165.691 203.973C165.868 201.609 166.032 199.243 166.183 196.873C166.64 189.596 167.658 182.417 169.915 175.455C170.352 174.098 170.726 172.873 169.359 171.752C168.238 170.838 168.43 169.879 169.453 168.866C170.387 167.927 171.454 167.022 171.759 165.488ZM241.279 170.405C241.687 172.751 242.543 174.996 243.801 177.018C244.528 178.162 245.028 179.433 245.276 180.765C247.332 194.665 250.474 208.334 253.876 221.954C254.806 225.671 255.622 229.423 256.497 233.155C256.684 233.942 256.689 234.738 255.725 234.881C254.889 235.004 254.692 234.271 254.594 233.583C254.56 233.342 254.471 233.091 254.417 232.87C250.597 216.014 246.122 199.297 243.442 182.191C242.892 178.685 241.648 177.5 238.211 177.038C236.743 176.829 235.253 176.829 233.786 177.038C228.869 177.78 227.251 180.16 228.048 185.062C228.918 190.382 229.783 195.703 230.545 201.037C232.242 213 233.987 224.953 236.505 236.779C237.567 241.789 239.263 246.509 242.636 250.487C245.714 254.116 248.989 254.657 253.026 252.139C256.099 250.221 257.357 247.183 258.08 243.81C259.25 238.337 258.375 232.894 257.844 227.451C256.89 217.77 255.243 208.167 254.525 198.441C254.137 193.229 253.945 188.027 252.785 182.869C251.373 176.527 248.025 172.175 241.279 170.425V170.405ZM176.022 176.32C177.049 175.302 177.669 173.98 178.274 172.652C178.559 172.023 179.006 171.757 179.64 172.062C179.751 172.117 179.848 172.194 179.927 172.289C180.006 172.383 180.065 172.493 180.099 172.611C180.134 172.729 180.144 172.853 180.128 172.975C180.113 173.097 180.072 173.215 180.009 173.321C179.759 174.005 179.443 174.664 179.065 175.288C177.403 177.81 175.884 180.46 173.961 182.776C171.439 185.81 171.011 189.07 171.641 192.811C173.878 205.93 175.967 219.078 178.156 232.206C179.006 237.29 179.065 237.285 184.13 237.693C184.277 237.693 184.43 237.595 184.744 237.487C184.239 211.807 183.736 186.064 183.235 160.256C181.951 160.168 181.199 160.989 180.407 161.638C177.945 163.693 175.977 166.276 174.65 169.195C172.442 173.926 172.354 172.146 175.707 176.232C175.746 176.271 175.845 176.266 176.022 176.32ZM200.001 315.631L200.685 315.582C202.293 310.542 203.95 305.522 205.484 300.458C206.167 298.201 206.772 295.914 206.738 293.495C206.59 283.101 206.511 272.707 206.379 262.312C206.379 261.447 206.639 260.513 205.98 259.657C202.204 259.362 198.403 258.924 194.583 259.165C194.121 260.218 194.322 261.211 194.308 262.17C194.195 271.251 194.401 280.362 193.919 289.419C193.423 298.86 197.686 306.963 200.001 315.631ZM194.765 238.927L205.754 239.911C206.246 238.839 206.03 237.944 206.054 237.049C206.236 230.008 205.68 222.982 205.489 215.946C205.249 207.115 204.908 198.286 204.466 189.458C204.374 186.43 203.912 183.425 203.089 180.509C202.632 179 202.386 176.915 200.395 176.861C198.403 176.807 198.108 178.906 197.651 180.416C196.806 183.238 196.324 186.156 196.215 189.099C195.684 201.441 195.207 213.785 194.785 226.133C194.647 230.298 194.765 234.463 194.765 238.927ZM239.617 171.797C237.441 162.942 234.697 154.238 231.401 145.737C228.854 139.01 223.504 135.328 216.93 133.277C215.171 132.735 213.338 132.484 211.504 132.529C210.826 132.546 210.429 133.3 211.016 133.64C211.221 133.759 211.442 133.84 211.674 133.9C213.966 134.495 216.114 135.522 218.139 136.75C220.855 138.397 224.586 141.011 226.159 143.741C226.43 144.203 226.887 144.724 226.381 145.304C225.874 145.884 225.23 145.697 224.645 145.265C224.244 144.984 223.824 144.733 223.386 144.512C221.534 143.466 219.55 142.674 217.486 142.157C215.957 141.818 214.413 143.2 214.344 144.842C214.305 145.825 214.383 147.094 215.78 146.863C218.022 146.494 219.654 147.846 221.518 148.535C222.083 148.746 222.865 149.105 222.595 149.931C222.275 150.914 221.424 150.595 220.721 150.423C218.587 149.892 216.449 149.375 214.329 148.78C213.346 148.505 212.663 148.456 212.289 149.7C211.935 150.86 212.407 151.367 213.331 151.775C214.901 152.47 216.463 153.17 218.017 153.874C218.671 154.174 219.576 154.4 219.261 155.379C218.946 156.357 218.047 155.964 217.393 155.777C215.775 155.285 214.221 154.582 212.545 154.42C211.689 156.436 211.645 156.505 213.321 157.66C215.74 159.317 217.889 160.999 219.182 163.89C220.967 167.868 223.962 171.074 227.453 173.812C231.091 171.324 235.098 171.143 239.617 171.816V171.797ZM214.01 240.319C214.467 216.6 214.919 192.929 215.386 168.65C213.046 170.813 211.133 172.539 209.27 174.314C208.326 175.209 207.426 175.937 206.516 174.904C203.787 177.176 204.682 179.821 205.503 182.545C205.805 183.816 205.997 185.111 206.079 186.415C207.323 196.597 206.92 206.849 207.451 217.067C207.839 224.649 208.164 232.245 207.967 239.827C209.95 240.261 211.983 240.426 214.01 240.319ZM186.657 237.86C188.737 238.568 190.669 238.313 192.739 238.677C192.508 225.893 193.624 213.369 193.722 200.841C193.766 194.7 194.259 188.57 195.198 182.501C195.753 178.897 195.689 178.13 194.44 174.742C192.823 175.548 192.833 175.538 191.554 174.432C189.587 172.711 187.891 170.602 185.378 168.984C185.787 192.177 186.219 215.002 186.657 237.875V237.86ZM247.981 256.053C239.13 252.975 236.888 245.324 234.577 237.413C229.203 238.396 225.437 242.708 220.176 243.997C221.155 246.01 221.668 248.218 221.678 250.456C221.687 252.695 221.192 254.907 220.23 256.928C222.098 257.828 223.78 258.644 225.466 259.441C230.182 261.668 235.202 262.666 240.364 263.06C241.5 263.143 243.315 263.31 243.506 262.337C244.067 259.505 246.412 258.221 247.932 256.25C247.991 256.191 247.976 256.087 247.981 256.048V256.053ZM187.124 258.743C187.232 273.724 188.107 288.578 186.76 303.6L194.199 304.091C193.359 300.536 192.046 297.35 192.09 293.849C192.228 282.88 192.267 271.915 192.326 260.945C192.326 260.247 192.616 259.47 191.864 258.733L187.124 258.743ZM208.695 259.79C208.09 260.65 208.345 261.491 208.35 262.288C208.38 267.283 208.557 272.284 208.468 277.274C208.301 286.199 209.599 295.221 206.674 304.116L213.97 303.57C212.628 289.001 213.523 274.624 213.538 260.154L208.695 259.79ZM210.691 147.389C203.807 151.18 197.174 151.578 190.379 147.802C190.392 150.265 190.155 152.723 189.671 155.138C189.599 155.41 189.62 155.699 189.731 155.958C189.841 156.217 190.035 156.432 190.281 156.569C193.609 159.175 196.953 161.766 200.351 164.406C203.36 162.066 206.251 159.814 209.152 157.577C209.557 157.203 209.845 156.719 209.983 156.185C211.084 153.422 209.771 150.585 210.691 147.389ZM187.866 157.169C187.075 158.113 186.47 158.781 185.934 159.494C185.01 160.729 184.882 165.468 185.88 166.447C188.166 168.699 190.556 170.838 192.857 172.981C195.414 170.725 196.215 167.573 198.6 165.518C194.927 162.666 191.466 159.971 187.866 157.169ZM207.864 172.972C209.83 171.147 211.748 169.387 213.641 167.593C216.483 164.898 216.286 162.145 213.115 159.898L211.124 158.477C208.09 160.842 205.1 163.182 202.003 165.606C204.623 167.676 205.292 170.916 207.864 172.972ZM203.252 176.05C204.81 173.655 203.458 168.625 201.059 167.445C200.847 167.328 200.61 167.264 200.368 167.26C200.127 167.255 199.887 167.311 199.672 167.42C197.277 168.507 195.876 173.547 197.4 176.04C199.328 174.422 201.329 174.378 203.252 176.05ZM222.005 124.914C225.683 122.888 227.158 119.938 227.099 116.176C227.099 115.04 227.064 113.629 225.481 113.718C224.119 113.782 222.826 114.209 222.752 116.142C222.644 118.954 222.285 121.767 222.005 124.904V124.914ZM178.151 124.501C177.87 121.211 177.659 118.448 177.384 115.694C177.266 114.529 176.661 113.619 175.363 113.683C174.192 113.742 174.055 114.755 173.976 115.65C173.686 119.166 174.92 121.993 178.151 124.491V124.501ZM216.689 243.913C217.636 246.057 218.107 248.381 218.07 250.725C218.032 253.068 217.488 255.376 216.473 257.489C219.477 255.684 219.748 252.798 219.713 249.877C219.674 246.735 218.627 244.69 216.689 243.903V243.913ZM240.925 175.238C238.403 173.075 235.443 172.932 232.483 173.724C230.516 174.24 228.21 174.634 227.482 177.869C231.907 174.781 236.249 174.324 240.925 175.238ZM169.246 209.799C169.123 208.197 168.209 207.316 166.566 207.341C164.924 207.366 163.995 208.408 164.034 209.996C164.073 211.584 165.052 212.573 166.709 212.523C168.366 212.474 169.212 211.52 169.246 209.799ZM225.599 238.096C225.043 237.26 224.925 236.243 223.824 235.544C223.824 237.093 223.047 238.308 223.367 239.817C224.237 239.429 225.002 238.839 225.599 238.096ZM172.919 164.613C172.398 164.996 171.788 164.937 172.083 165.822C172.318 165.715 172.519 165.546 172.665 165.333C172.81 165.12 172.895 164.871 172.909 164.613H172.919Z" fill="#141E5A"/>
<path d="M186.347 318.09C186.157 313.919 186.351 309.74 186.927 305.606C187.911 305.679 188.683 305.753 189.484 305.802C194.893 306.132 194.976 306.112 196.589 311.349C197.282 313.591 198.418 315.705 198.639 318.09H186.347Z" fill="#141E5A"/>
<path d="M202.081 318.09C202.73 314.215 204.54 310.715 205.523 306.938C205.788 305.955 206.58 306.053 207.278 306.004C209.388 305.871 211.497 305.773 213.828 305.65C214.364 309.774 214.547 313.935 214.373 318.09H202.081Z" fill="#141E5A"/>
<path d="M200.002 315.631C197.686 306.978 193.423 298.875 193.92 289.429C194.411 280.362 194.195 271.261 194.308 262.179C194.308 261.196 194.121 260.213 194.584 259.175C198.404 258.924 202.205 259.362 205.981 259.667C206.64 260.522 206.369 261.457 206.379 262.322C206.512 272.716 206.591 283.111 206.738 293.505C206.773 295.924 206.168 298.211 205.484 300.468C203.95 305.532 202.293 310.552 200.685 315.592L200.002 315.631Z" fill="#141E5A"/>
<path d="M194.764 238.927C194.764 234.443 194.646 230.278 194.764 226.119C195.181 213.771 195.658 201.426 196.195 189.084C196.313 186.145 196.804 183.232 197.656 180.416C198.113 178.906 198.349 176.807 200.399 176.861C202.45 176.915 202.636 179 203.094 180.509C203.916 183.425 204.379 186.43 204.47 189.458C204.913 198.286 205.254 207.115 205.493 215.946C205.685 222.982 206.24 230.008 206.059 237.049C206.034 237.929 206.255 238.839 205.759 239.911L194.764 238.927Z" fill="#141E5A"/>
<path d="M203.252 176.05C201.329 174.378 199.318 174.422 197.401 176.05C195.877 173.557 197.278 168.517 199.672 167.43C199.888 167.32 200.127 167.265 200.369 167.27C200.611 167.274 200.848 167.337 201.059 167.455C203.458 168.615 204.811 173.655 203.252 176.05Z" fill="#141E5A"/>
<path d="M169.245 209.799C169.211 211.52 168.351 212.474 166.708 212.519C165.066 212.563 164.073 211.589 164.033 209.991C163.994 208.393 164.884 207.361 166.566 207.336C168.247 207.311 169.137 208.197 169.245 209.799Z" fill="#063DAE"/>
<path d="M229.488 207.316L228.79 206.884C228.706 206.525 228.839 206.205 229.208 206.343C229.576 206.481 229.581 206.933 229.488 207.316Z" fill="#063DAE"/>
<path d="M219.04 112.562V112.533L218.799 111.55C218.927 111.874 219.291 112.135 219.04 112.562Z" fill="#063DAE"/>
<path d="M195.03 111.815C194.873 112.616 194.17 112.798 193.555 112.916C190.184 113.562 186.743 113.773 183.318 113.546C182.62 113.501 181.922 113.3 181.996 112.459C182.05 111.815 182.64 111.594 183.279 111.608C186.721 111.692 190.163 111.717 193.526 111.013C194.214 110.861 194.858 110.94 195.03 111.815Z" fill="#141E5A"/>
<path d="M218.798 111.54L219.039 112.523C218.808 113.413 218.135 113.536 217.343 113.566C214.162 113.725 210.973 113.534 207.834 112.995C207.116 112.862 205.95 112.833 206.093 111.707C206.255 110.453 207.401 110.94 208.06 111.073C211.644 111.776 215.219 111.736 218.798 111.54Z" fill="#141E5A"/>
<path d="M201.536 126.989C201.536 128.046 201.536 129.098 201.536 130.15C201.536 130.878 201.241 131.492 200.445 131.468C199.771 131.468 199.584 130.888 199.589 130.248C199.589 128.06 199.589 125.872 199.589 123.684C199.589 123.05 199.791 122.504 200.474 122.47C201.157 122.435 201.457 122.962 201.502 123.586C201.541 124.717 201.502 125.853 201.502 126.989H201.536Z" fill="#141E5A"/>
<path d="M200.473 136.572C201.909 136.572 203.114 136.7 204.161 137.452C204.386 137.559 204.562 137.748 204.653 137.979C204.744 138.211 204.744 138.469 204.653 138.701C204.61 138.817 204.541 138.923 204.452 139.01C204.363 139.097 204.255 139.163 204.138 139.203C204.02 139.243 203.895 139.256 203.771 139.241C203.648 139.227 203.529 139.185 203.423 139.119C202.538 138.705 201.573 138.488 200.595 138.482C199.617 138.476 198.65 138.682 197.759 139.084C197.636 139.16 197.497 139.208 197.353 139.224C197.209 139.24 197.063 139.224 196.925 139.177C196.788 139.13 196.663 139.053 196.559 138.952C196.455 138.851 196.374 138.728 196.323 138.593C196.058 137.88 196.653 137.545 197.13 137.28C198.159 136.745 199.315 136.5 200.473 136.572Z" fill="#141E5A"/>
<path d="M207.49 124.073C207.333 124.835 206.758 125.14 206.104 124.722C204.939 123.992 203.96 123.003 203.242 121.831C202.834 121.147 203.242 120.582 204.058 120.493C204.511 120.429 207.49 123.537 207.49 124.073Z" fill="#141E5A"/>
<path d="M211.123 120.429C210.918 120.413 210.719 120.354 210.538 120.257C210.357 120.159 210.199 120.025 210.073 119.862C209.947 119.7 209.856 119.513 209.807 119.313C209.758 119.114 209.75 118.906 209.786 118.703C209.774 118.517 209.804 118.331 209.874 118.158C209.944 117.985 210.052 117.829 210.19 117.703C210.327 117.577 210.492 117.484 210.67 117.43C210.849 117.376 211.037 117.362 211.222 117.391C211.429 117.381 211.636 117.42 211.826 117.504C212.017 117.588 212.185 117.716 212.317 117.876C212.45 118.036 212.543 118.225 212.59 118.427C212.637 118.63 212.637 118.84 212.589 119.043C212.577 119.421 212.416 119.778 212.142 120.038C211.867 120.298 211.501 120.439 211.123 120.429Z" fill="#141E5A"/>
<path d="M191.348 118.954C191.215 119.888 190.698 120.528 189.745 120.429C189.539 120.416 189.338 120.359 189.156 120.263C188.973 120.167 188.813 120.034 188.685 119.872C188.557 119.711 188.465 119.524 188.414 119.324C188.362 119.125 188.353 118.917 188.388 118.713C188.392 118.529 188.434 118.348 188.513 118.181C188.591 118.014 188.703 117.865 188.841 117.743C188.98 117.621 189.142 117.53 189.318 117.474C189.494 117.419 189.679 117.4 189.863 117.42C190.856 117.415 191.333 117.971 191.348 118.954Z" fill="#141E5A"/>
</g>
<defs>
<filter id="filter0_d_315_4057" x="46.3881" y="64.6276" width="60.8488" height="60.8488" filterUnits="userSpaceOnUse" color-interpolation-filters="sRGB">
<feFlood flood-opacity="0" result="BackgroundImageFix"/>
<feColorMatrix in="SourceAlpha" type="matrix" values="0 0 0 0 0 0 0 0 0 0 0 0 0 0 0 0 0 0 127 0" result="hardAlpha"/>
<feOffset dy="1.81098"/>
<feGaussianBlur stdDeviation="2.8372"/>
<feComposite in2="hardAlpha" operator="out"/>
<feColorMatrix type="matrix" values="0 0 0 0 0.616254 0 0 0 0 0.772941 0 0 0 0 0.796154 0 0 0 0.5 0"/>
<feBlend mode="normal" in2="BackgroundImageFix" result="effect1_dropShadow_315_4057"/>
<feBlend mode="normal" in="SourceGraphic" in2="effect1_dropShadow_315_4057" result="shape"/>
</filter>
<filter id="filter1_d_315_4057" x="320.701" y="92.4713" width="60.8488" height="60.8488" filterUnits="userSpaceOnUse" color-interpolation-filters="sRGB">
<feFlood flood-opacity="0" result="BackgroundImageFix"/>
<feColorMatrix in="SourceAlpha" type="matrix" values="0 0 0 0 0 0 0 0 0 0 0 0 0 0 0 0 0 0 127 0" result="hardAlpha"/>
<feOffset dy="1.81098"/>
<feGaussianBlur stdDeviation="2.8372"/>
<feComposite in2="hardAlpha" operator="out"/>
<feColorMatrix type="matrix" values="0 0 0 0 0.616254 0 0 0 0 0.772941 0 0 0 0 0.796154 0 0 0 0.5 0"/>
<feBlend mode="normal" in2="BackgroundImageFix" result="effect1_dropShadow_315_4057"/>
<feBlend mode="normal" in="SourceGraphic" in2="effect1_dropShadow_315_4057" result="shape"/>
</filter>
<filter id="filter2_d_315_4057" x="142.294" y="15.1277" width="60.8488" height="60.8488" filterUnits="userSpaceOnUse" color-interpolation-filters="sRGB">
<feFlood flood-opacity="0" result="BackgroundImageFix"/>
<feColorMatrix in="SourceAlpha" type="matrix" values="0 0 0 0 0 0 0 0 0 0 0 0 0 0 0 0 0 0 127 0" result="hardAlpha"/>
<feOffset dy="1.81098"/>
<feGaussianBlur stdDeviation="2.8372"/>
<feComposite in2="hardAlpha" operator="out"/>
<feColorMatrix type="matrix" values="0 0 0 0 0.616254 0 0 0 0 0.772941 0 0 0 0 0.796154 0 0 0 0.5 0"/>
<feBlend mode="normal" in2="BackgroundImageFix" result="effect1_dropShadow_315_4057"/>
<feBlend mode="normal" in="SourceGraphic" in2="effect1_dropShadow_315_4057" result="shape"/>
</filter>
<filter id="filter3_d_315_4057" x="15.4506" y="170.846" width="60.8488" height="60.8488" filterUnits="userSpaceOnUse" color-interpolation-filters="sRGB">
<feFlood flood-opacity="0" result="BackgroundImageFix"/>
<feColorMatrix in="SourceAlpha" type="matrix" values="0 0 0 0 0 0 0 0 0 0 0 0 0 0 0 0 0 0 127 0" result="hardAlpha"/>
<feOffset dy="1.81098"/>
<feGaussianBlur stdDeviation="2.83719"/>
<feComposite in2="hardAlpha" operator="out"/>
<feColorMatrix type="matrix" values="0 0 0 0 0.616254 0 0 0 0 0.772941 0 0 0 0 0.796154 0 0 0 0.5 0"/>
<feBlend mode="normal" in2="BackgroundImageFix" result="effect1_dropShadow_315_4057"/>
<feBlend mode="normal" in="SourceGraphic" in2="effect1_dropShadow_315_4057" result="shape"/>
</filter>
<filter id="filter4_d_315_4057" x="341.326" y="177.136" width="60.8488" height="60.8488" filterUnits="userSpaceOnUse" color-interpolation-filters="sRGB">
<feFlood flood-opacity="0" result="BackgroundImageFix"/>
<feColorMatrix in="SourceAlpha" type="matrix" values="0 0 0 0 0 0 0 0 0 0 0 0 0 0 0 0 0 0 127 0" result="hardAlpha"/>
<feOffset dy="1.81098"/>
<feGaussianBlur stdDeviation="2.8372"/>
<feComposite in2="hardAlpha" operator="out"/>
<feColorMatrix type="matrix" values="0 0 0 0 0.616254 0 0 0 0 0.772941 0 0 0 0 0.796154 0 0 0 0.5 0"/>
<feBlend mode="normal" in2="BackgroundImageFix" result="effect1_dropShadow_315_4057"/>
<feBlend mode="normal" in="SourceGraphic" in2="effect1_dropShadow_315_4057" result="shape"/>
</filter>
<filter id="filter5_d_315_4057" x="257.794" y="30.5964" width="60.8488" height="60.8488" filterUnits="userSpaceOnUse" color-interpolation-filters="sRGB">
<feFlood flood-opacity="0" result="BackgroundImageFix"/>
<feColorMatrix in="SourceAlpha" type="matrix" values="0 0 0 0 0 0 0 0 0 0 0 0 0 0 0 0 0 0 127 0" result="hardAlpha"/>
<feOffset dy="1.81098"/>
<feGaussianBlur stdDeviation="2.8372"/>
<feComposite in2="hardAlpha" operator="out"/>
<feColorMatrix type="matrix" values="0 0 0 0 0.616254 0 0 0 0 0.772941 0 0 0 0 0.796154 0 0 0 0.5 0"/>
<feBlend mode="normal" in2="BackgroundImageFix" result="effect1_dropShadow_315_4057"/>
<feBlend mode="normal" in="SourceGraphic" in2="effect1_dropShadow_315_4057" result="shape"/>
</filter>
<filter id="filter6_d_315_4057" x="299.326" y="237.136" width="60.8488" height="60.8488" filterUnits="userSpaceOnUse" color-interpolation-filters="sRGB">
<feFlood flood-opacity="0" result="BackgroundImageFix"/>
<feColorMatrix in="SourceAlpha" type="matrix" values="0 0 0 0 0 0 0 0 0 0 0 0 0 0 0 0 0 0 127 0" result="hardAlpha"/>
<feOffset dy="1.81098"/>
<feGaussianBlur stdDeviation="2.8372"/>
<feComposite in2="hardAlpha" operator="out"/>
<feColorMatrix type="matrix" values="0 0 0 0 0.616254 0 0 0 0 0.772941 0 0 0 0 0.796154 0 0 0 0.5 0"/>
<feBlend mode="normal" in2="BackgroundImageFix" result="effect1_dropShadow_315_4057"/>
<feBlend mode="normal" in="SourceGraphic" in2="effect1_dropShadow_315_4057" result="shape"/>
</filter>
<filter id="filter7_d_315_4057" x="53.3256" y="237.136" width="60.8488" height="60.8488" filterUnits="userSpaceOnUse" color-interpolation-filters="sRGB">
<feFlood flood-opacity="0" result="BackgroundImageFix"/>
<feColorMatrix in="SourceAlpha" type="matrix" values="0 0 0 0 0 0 0 0 0 0 0 0 0 0 0 0 0 0 127 0" result="hardAlpha"/>
<feOffset dy="1.81098"/>
<feGaussianBlur stdDeviation="2.8372"/>
<feComposite in2="hardAlpha" operator="out"/>
<feColorMatrix type="matrix" values="0 0 0 0 0.616254 0 0 0 0 0.772941 0 0 0 0 0.796154 0 0 0 0.5 0"/>
<feBlend mode="normal" in2="BackgroundImageFix" result="effect1_dropShadow_315_4057"/>
<feBlend mode="normal" in="SourceGraphic" in2="effect1_dropShadow_315_4057" result="shape"/>
</filter>
<filter id="filter8_d_315_4057" x="390.826" y="114.128" width="60.8488" height="60.8488" filterUnits="userSpaceOnUse" color-interpolation-filters="sRGB">
<feFlood flood-opacity="0" result="BackgroundImageFix"/>
<feColorMatrix in="SourceAlpha" type="matrix" values="0 0 0 0 0 0 0 0 0 0 0 0 0 0 0 0 0 0 127 0" result="hardAlpha"/>
<feOffset dy="1.81098"/>
<feGaussianBlur stdDeviation="2.8372"/>
<feComposite in2="hardAlpha" operator="out"/>
<feColorMatrix type="matrix" values="0 0 0 0 0.616254 0 0 0 0 0.772941 0 0 0 0 0.796154 0 0 0 0.5 0"/>
<feBlend mode="normal" in2="BackgroundImageFix" result="effect1_dropShadow_315_4057"/>
<feBlend mode="normal" in="SourceGraphic" in2="effect1_dropShadow_315_4057" result="shape"/>
</filter>
<linearGradient id="paint0_linear_315_4057" x1="66.3742" y1="82.1935" x2="116.012" y2="100.329" gradientUnits="userSpaceOnUse">
<stop stop-color="#027DEC"/>
<stop offset="1" stop-color="#15E29F"/>
<stop offset="1" stop-color="#15E29F"/>
</linearGradient>
<linearGradient id="paint1_linear_315_4057" x1="339.471" y1="110.018" x2="393.357" y2="131.959" gradientUnits="userSpaceOnUse">
<stop stop-color="#027DEC"/>
<stop offset="1" stop-color="#15E29F"/>
<stop offset="1" stop-color="#15E29F"/>
</linearGradient>
<linearGradient id="paint2_linear_315_4057" x1="163.395" y1="32.674" x2="208.83" y2="47.4745" gradientUnits="userSpaceOnUse">
<stop stop-color="#027DEC"/>
<stop offset="1" stop-color="#15E29F"/>
<stop offset="1" stop-color="#15E29F"/>
</linearGradient>
<linearGradient id="paint3_linear_315_4057" x1="36.5515" y1="188.392" x2="81.9877" y2="203.191" gradientUnits="userSpaceOnUse">
<stop stop-color="#027DEC"/>
<stop offset="1" stop-color="#15E29F"/>
<stop offset="1" stop-color="#15E29F"/>
</linearGradient>
<linearGradient id="paint4_linear_315_4057" x1="360.096" y1="194.683" x2="413.982" y2="216.625" gradientUnits="userSpaceOnUse">
<stop stop-color="#027DEC"/>
<stop offset="1" stop-color="#15E29F"/>
<stop offset="1" stop-color="#15E29F"/>
</linearGradient>
<linearGradient id="paint5_linear_315_4057" x1="267.684" y1="52.2098" x2="316.089" y2="107.117" gradientUnits="userSpaceOnUse">
<stop stop-color="#027DEC"/>
<stop offset="1" stop-color="#15E29F"/>
<stop offset="1" stop-color="#15E29F"/>
</linearGradient>
<linearGradient id="paint6_linear_315_4057" x1="317.113" y1="258.75" x2="362.912" y2="290.72" gradientUnits="userSpaceOnUse">
<stop stop-color="#027DEC"/>
<stop offset="1" stop-color="#15E29F"/>
<stop offset="1" stop-color="#15E29F"/>
</linearGradient>
<linearGradient id="paint7_linear_315_4057" x1="70.5864" y1="258.75" x2="117.001" y2="292.499" gradientUnits="userSpaceOnUse">
<stop stop-color="#027DEC"/>
<stop offset="1" stop-color="#15E29F"/>
<stop offset="1" stop-color="#15E29F"/>
</linearGradient>
<linearGradient id="paint8_linear_315_4057" x1="410.761" y1="132.781" x2="459.258" y2="152.528" gradientUnits="userSpaceOnUse">
<stop stop-color="#027DEC"/>
<stop offset="1" stop-color="#15E29F"/>
<stop offset="1" stop-color="#15E29F"/>
</linearGradient>
<clipPath id="clip0_315_4057">
<rect width="120.583" height="234.09" fill="white" transform="translate(140 83.9999)"/>
</clipPath>
</defs>
</svg>
